solid Sphere

facet normal 26.393202 8.575671 81.229924
	outer loop
		vertex 0.000000 0.000000 20.000000
		vertex 11.755705 0.000000 16.180340
		vertex 9.510565 6.909830 16.180340
	endloop
endfacet

facet normal -26.393202 -8.575671 -81.229924
	outer loop
		vertex 0.000000 0.000000 20.000000
		vertex 9.510565 6.909830 16.180340
		vertex 11.755705 0.000000 16.180340
	endloop
endfacet

facet normal 16.311896 22.451399 81.229924
	outer loop
		vertex 0.000000 0.000000 20.000000
		vertex 9.510565 6.909830 16.180340
		vertex 3.632713 11.180340 16.180340
	endloop
endfacet

facet normal -16.311896 -22.451399 -81.229924
	outer loop
		vertex 0.000000 0.000000 20.000000
		vertex 3.632713 11.180340 16.180340
		vertex 9.510565 6.909830 16.180340
	endloop
endfacet

facet normal 0.000000 27.751455 81.229924
	outer loop
		vertex 0.000000 0.000000 20.000000
		vertex 3.632713 11.180340 16.180340
		vertex -3.632713 11.180340 16.180340
	endloop
endfacet

facet normal 0.000000 -27.751455 -81.229924
	outer loop
		vertex -0.000000 0.000000 20.000000
		vertex -3.632713 11.180340 16.180340
		vertex 3.632713 11.180340 16.180340
	endloop
endfacet

facet normal -16.311896 22.451399 81.229924
	outer loop
		vertex -0.000000 0.000000 20.000000
		vertex -3.632713 11.180340 16.180340
		vertex -9.510565 6.909830 16.180340
	endloop
endfacet

facet normal 16.311896 -22.451399 -81.229924
	outer loop
		vertex -0.000000 0.000000 20.000000
		vertex -9.510565 6.909830 16.180340
		vertex -3.632713 11.180340 16.180340
	endloop
endfacet

facet normal -26.393202 8.575671 81.229924
	outer loop
		vertex -0.000000 0.000000 20.000000
		vertex -9.510565 6.909830 16.180340
		vertex -11.755705 0.000000 16.180340
	endloop
endfacet

facet normal 26.393202 -8.575671 -81.229924
	outer loop
		vertex -0.000000 0.000000 20.000000
		vertex -11.755705 0.000000 16.180340
		vertex -9.510565 6.909830 16.180340
	endloop
endfacet

facet normal -26.393202 -8.575671 81.229924
	outer loop
		vertex -0.000000 0.000000 20.000000
		vertex -11.755705 0.000000 16.180340
		vertex -9.510565 -6.909830 16.180340
	endloop
endfacet

facet normal 26.393202 8.575671 -81.229924
	outer loop
		vertex -0.000000 -0.000000 20.000000
		vertex -9.510565 -6.909830 16.180340
		vertex -11.755705 0.000000 16.180340
	endloop
endfacet

facet normal -16.311896 -22.451399 81.229924
	outer loop
		vertex -0.000000 -0.000000 20.000000
		vertex -9.510565 -6.909830 16.180340
		vertex -3.632713 -11.180340 16.180340
	endloop
endfacet

facet normal 16.311896 22.451399 -81.229924
	outer loop
		vertex -0.000000 -0.000000 20.000000
		vertex -3.632713 -11.180340 16.180340
		vertex -9.510565 -6.909830 16.180340
	endloop
endfacet

facet normal -0.000000 -27.751455 81.229924
	outer loop
		vertex -0.000000 -0.000000 20.000000
		vertex -3.632713 -11.180340 16.180340
		vertex 3.632713 -11.180340 16.180340
	endloop
endfacet

facet normal 0.000000 27.751455 -81.229924
	outer loop
		vertex 0.000000 -0.000000 20.000000
		vertex 3.632713 -11.180340 16.180340
		vertex -3.632713 -11.180340 16.180340
	endloop
endfacet

facet normal 16.311896 -22.451399 81.229924
	outer loop
		vertex 0.000000 -0.000000 20.000000
		vertex 3.632713 -11.180340 16.180340
		vertex 9.510565 -6.909830 16.180340
	endloop
endfacet

facet normal -16.311896 22.451399 -81.229924
	outer loop
		vertex 0.000000 -0.000000 20.000000
		vertex 9.510565 -6.909830 16.180340
		vertex 3.632713 -11.180340 16.180340
	endloop
endfacet

facet normal 26.393202 -8.575671 81.229924
	outer loop
		vertex 0.000000 -0.000000 20.000000
		vertex 9.510565 -6.909830 16.180340
		vertex 11.755705 -0.000000 16.180340
	endloop
endfacet

facet normal -26.393202 8.575671 -81.229924
	outer loop
		vertex 0.000000 -0.000000 20.000000
		vertex 11.755705 -0.000000 16.180340
		vertex 9.510565 -6.909830 16.180340
	endloop
endfacet

facet normal 111.803399 36.327126 81.229924
	outer loop
		vertex 11.755705 0.000000 16.180340
		vertex 19.021130 0.000000 6.180340
		vertex 15.388418 11.180340 6.180340
	endloop
endfacet

facet normal -111.803399 -36.327126 -81.229924
	outer loop
		vertex 9.510565 6.909830 16.180340
		vertex 15.388418 11.180340 6.180340
		vertex 19.021130 0.000000 6.180340
	endloop
endfacet

facet normal 69.098301 95.105652 81.229924
	outer loop
		vertex 9.510565 6.909830 16.180340
		vertex 15.388418 11.180340 6.180340
		vertex 5.877853 18.090170 6.180340
	endloop
endfacet

facet normal -69.098301 -95.105652 -81.229924
	outer loop
		vertex 3.632713 11.180340 16.180340
		vertex 5.877853 18.090170 6.180340
		vertex 15.388418 11.180340 6.180340
	endloop
endfacet

facet normal 0.000000 117.557050 81.229924
	outer loop
		vertex 3.632713 11.180340 16.180340
		vertex 5.877853 18.090170 6.180340
		vertex -5.877853 18.090170 6.180340
	endloop
endfacet

facet normal 0.000000 -117.557050 -81.229924
	outer loop
		vertex -3.632713 11.180340 16.180340
		vertex -5.877853 18.090170 6.180340
		vertex 5.877853 18.090170 6.180340
	endloop
endfacet

facet normal -69.098301 95.105652 81.229924
	outer loop
		vertex -3.632713 11.180340 16.180340
		vertex -5.877853 18.090170 6.180340
		vertex -15.388418 11.180340 6.180340
	endloop
endfacet

facet normal 69.098301 -95.105652 -81.229924
	outer loop
		vertex -9.510565 6.909830 16.180340
		vertex -15.388418 11.180340 6.180340
		vertex -5.877853 18.090170 6.180340
	endloop
endfacet

facet normal -111.803399 36.327126 81.229924
	outer loop
		vertex -9.510565 6.909830 16.180340
		vertex -15.388418 11.180340 6.180340
		vertex -19.021130 0.000000 6.180340
	endloop
endfacet

facet normal 111.803399 -36.327126 -81.229924
	outer loop
		vertex -11.755705 0.000000 16.180340
		vertex -19.021130 0.000000 6.180340
		vertex -15.388418 11.180340 6.180340
	endloop
endfacet

facet normal -111.803399 -36.327126 81.229924
	outer loop
		vertex -11.755705 0.000000 16.180340
		vertex -19.021130 0.000000 6.180340
		vertex -15.388418 -11.180340 6.180340
	endloop
endfacet

facet normal 111.803399 36.327126 -81.229924
	outer loop
		vertex -9.510565 -6.909830 16.180340
		vertex -15.388418 -11.180340 6.180340
		vertex -19.021130 0.000000 6.180340
	endloop
endfacet

facet normal -69.098301 -95.105652 81.229924
	outer loop
		vertex -9.510565 -6.909830 16.180340
		vertex -15.388418 -11.180340 6.180340
		vertex -5.877853 -18.090170 6.180340
	endloop
endfacet

facet normal 69.098301 95.105652 -81.229924
	outer loop
		vertex -3.632713 -11.180340 16.180340
		vertex -5.877853 -18.090170 6.180340
		vertex -15.388418 -11.180340 6.180340
	endloop
endfacet

facet normal 0.000000 -117.557050 81.229924
	outer loop
		vertex -3.632713 -11.180340 16.180340
		vertex -5.877853 -18.090170 6.180340
		vertex 5.877853 -18.090170 6.180340
	endloop
endfacet

facet normal 0.000000 117.557050 -81.229924
	outer loop
		vertex 3.632713 -11.180340 16.180340
		vertex 5.877853 -18.090170 6.180340
		vertex -5.877853 -18.090170 6.180340
	endloop
endfacet

facet normal 69.098301 -95.105652 81.229924
	outer loop
		vertex 3.632713 -11.180340 16.180340
		vertex 5.877853 -18.090170 6.180340
		vertex 15.388418 -11.180340 6.180340
	endloop
endfacet

facet normal -69.098301 95.105652 -81.229924
	outer loop
		vertex 9.510565 -6.909830 16.180340
		vertex 15.388418 -11.180340 6.180340
		vertex 5.877853 -18.090170 6.180340
	endloop
endfacet

facet normal 111.803399 -36.327126 81.229924
	outer loop
		vertex 9.510565 -6.909830 16.180340
		vertex 15.388418 -11.180340 6.180340
		vertex 19.021130 -0.000000 6.180340
	endloop
endfacet

facet normal -111.803399 36.327126 -81.229924
	outer loop
		vertex 11.755705 -0.000000 16.180340
		vertex 19.021130 -0.000000 6.180340
		vertex 15.388418 -11.180340 6.180340
	endloop
endfacet

facet normal 138.196601 44.902798 0.000000
	outer loop
		vertex 19.021130 0.000000 6.180340
		vertex 19.021130 0.000000 -6.180340
		vertex 15.388418 11.180340 -6.180340
	endloop
endfacet

facet normal -138.196601 -44.902798 -0.000000
	outer loop
		vertex 15.388418 11.180340 6.180340
		vertex 15.388418 11.180340 -6.180340
		vertex 19.021130 0.000000 -6.180340
	endloop
endfacet

facet normal 85.410197 117.557050 0.000000
	outer loop
		vertex 15.388418 11.180340 6.180340
		vertex 15.388418 11.180340 -6.180340
		vertex 5.877853 18.090170 -6.180340
	endloop
endfacet

facet normal -85.410197 -117.557050 -0.000000
	outer loop
		vertex 5.877853 18.090170 6.180340
		vertex 5.877853 18.090170 -6.180340
		vertex 15.388418 11.180340 -6.180340
	endloop
endfacet

facet normal 0.000000 145.308506 0.000000
	outer loop
		vertex 5.877853 18.090170 6.180340
		vertex 5.877853 18.090170 -6.180340
		vertex -5.877853 18.090170 -6.180340
	endloop
endfacet

facet normal 0.000000 -145.308506 0.000000
	outer loop
		vertex -5.877853 18.090170 6.180340
		vertex -5.877853 18.090170 -6.180340
		vertex 5.877853 18.090170 -6.180340
	endloop
endfacet

facet normal -85.410197 117.557050 0.000000
	outer loop
		vertex -5.877853 18.090170 6.180340
		vertex -5.877853 18.090170 -6.180340
		vertex -15.388418 11.180340 -6.180340
	endloop
endfacet

facet normal 85.410197 -117.557050 0.000000
	outer loop
		vertex -15.388418 11.180340 6.180340
		vertex -15.388418 11.180340 -6.180340
		vertex -5.877853 18.090170 -6.180340
	endloop
endfacet

facet normal -138.196601 44.902798 0.000000
	outer loop
		vertex -15.388418 11.180340 6.180340
		vertex -15.388418 11.180340 -6.180340
		vertex -19.021130 0.000000 -6.180340
	endloop
endfacet

facet normal 138.196601 -44.902798 0.000000
	outer loop
		vertex -19.021130 0.000000 6.180340
		vertex -19.021130 0.000000 -6.180340
		vertex -15.388418 11.180340 -6.180340
	endloop
endfacet

facet normal -138.196601 -44.902798 -0.000000
	outer loop
		vertex -19.021130 0.000000 6.180340
		vertex -19.021130 0.000000 -6.180340
		vertex -15.388418 -11.180340 -6.180340
	endloop
endfacet

facet normal 138.196601 44.902798 0.000000
	outer loop
		vertex -15.388418 -11.180340 6.180340
		vertex -15.388418 -11.180340 -6.180340
		vertex -19.021130 0.000000 -6.180340
	endloop
endfacet

facet normal -85.410197 -117.557050 -0.000000
	outer loop
		vertex -15.388418 -11.180340 6.180340
		vertex -15.388418 -11.180340 -6.180340
		vertex -5.877853 -18.090170 -6.180340
	endloop
endfacet

facet normal 85.410197 117.557050 0.000000
	outer loop
		vertex -5.877853 -18.090170 6.180340
		vertex -5.877853 -18.090170 -6.180340
		vertex -15.388418 -11.180340 -6.180340
	endloop
endfacet

facet normal 0.000000 -145.308506 0.000000
	outer loop
		vertex -5.877853 -18.090170 6.180340
		vertex -5.877853 -18.090170 -6.180340
		vertex 5.877853 -18.090170 -6.180340
	endloop
endfacet

facet normal 0.000000 145.308506 0.000000
	outer loop
		vertex 5.877853 -18.090170 6.180340
		vertex 5.877853 -18.090170 -6.180340
		vertex -5.877853 -18.090170 -6.180340
	endloop
endfacet

facet normal 85.410197 -117.557050 0.000000
	outer loop
		vertex 5.877853 -18.090170 6.180340
		vertex 5.877853 -18.090170 -6.180340
		vertex 15.388418 -11.180340 -6.180340
	endloop
endfacet

facet normal -85.410197 117.557050 0.000000
	outer loop
		vertex 15.388418 -11.180340 6.180340
		vertex 15.388418 -11.180340 -6.180340
		vertex 5.877853 -18.090170 -6.180340
	endloop
endfacet

facet normal 138.196601 -44.902798 0.000000
	outer loop
		vertex 15.388418 -11.180340 6.180340
		vertex 15.388418 -11.180340 -6.180340
		vertex 19.021130 -0.000000 -6.180340
	endloop
endfacet

facet normal -138.196601 44.902798 0.000000
	outer loop
		vertex 19.021130 -0.000000 6.180340
		vertex 19.021130 -0.000000 -6.180340
		vertex 15.388418 -11.180340 -6.180340
	endloop
endfacet

facet normal 69.098301 22.451399 -50.202854
	outer loop
		vertex 19.021130 0.000000 -6.180340
		vertex 11.755705 0.000000 -16.180340
		vertex 9.510565 6.909830 -16.180340
	endloop
endfacet

facet normal -69.098301 -22.451399 50.202854
	outer loop
		vertex 15.388418 11.180340 -6.180340
		vertex 9.510565 6.909830 -16.180340
		vertex 11.755705 0.000000 -16.180340
	endloop
endfacet

facet normal 42.705098 58.778525 -50.202854
	outer loop
		vertex 15.388418 11.180340 -6.180340
		vertex 9.510565 6.909830 -16.180340
		vertex 3.632713 11.180340 -16.180340
	endloop
endfacet

facet normal -42.705098 -58.778525 50.202854
	outer loop
		vertex 5.877853 18.090170 -6.180340
		vertex 3.632713 11.180340 -16.180340
		vertex 9.510565 6.909830 -16.180340
	endloop
endfacet

facet normal 0.000000 72.654253 -50.202854
	outer loop
		vertex 5.877853 18.090170 -6.180340
		vertex 3.632713 11.180340 -16.180340
		vertex -3.632713 11.180340 -16.180340
	endloop
endfacet

facet normal 0.000000 -72.654253 50.202854
	outer loop
		vertex -5.877853 18.090170 -6.180340
		vertex -3.632713 11.180340 -16.180340
		vertex 3.632713 11.180340 -16.180340
	endloop
endfacet

facet normal -42.705098 58.778525 -50.202854
	outer loop
		vertex -5.877853 18.090170 -6.180340
		vertex -3.632713 11.180340 -16.180340
		vertex -9.510565 6.909830 -16.180340
	endloop
endfacet

facet normal 42.705098 -58.778525 50.202854
	outer loop
		vertex -15.388418 11.180340 -6.180340
		vertex -9.510565 6.909830 -16.180340
		vertex -3.632713 11.180340 -16.180340
	endloop
endfacet

facet normal -69.098301 22.451399 -50.202854
	outer loop
		vertex -15.388418 11.180340 -6.180340
		vertex -9.510565 6.909830 -16.180340
		vertex -11.755705 0.000000 -16.180340
	endloop
endfacet

facet normal 69.098301 -22.451399 50.202854
	outer loop
		vertex -19.021130 0.000000 -6.180340
		vertex -11.755705 0.000000 -16.180340
		vertex -9.510565 6.909830 -16.180340
	endloop
endfacet

facet normal -69.098301 -22.451399 -50.202854
	outer loop
		vertex -19.021130 0.000000 -6.180340
		vertex -11.755705 0.000000 -16.180340
		vertex -9.510565 -6.909830 -16.180340
	endloop
endfacet

facet normal 69.098301 22.451399 50.202854
	outer loop
		vertex -15.388418 -11.180340 -6.180340
		vertex -9.510565 -6.909830 -16.180340
		vertex -11.755705 0.000000 -16.180340
	endloop
endfacet

facet normal -42.705098 -58.778525 -50.202854
	outer loop
		vertex -15.388418 -11.180340 -6.180340
		vertex -9.510565 -6.909830 -16.180340
		vertex -3.632713 -11.180340 -16.180340
	endloop
endfacet

facet normal 42.705098 58.778525 50.202854
	outer loop
		vertex -5.877853 -18.090170 -6.180340
		vertex -3.632713 -11.180340 -16.180340
		vertex -9.510565 -6.909830 -16.180340
	endloop
endfacet

facet normal -0.000000 -72.654253 -50.202854
	outer loop
		vertex -5.877853 -18.090170 -6.180340
		vertex -3.632713 -11.180340 -16.180340
		vertex 3.632713 -11.180340 -16.180340
	endloop
endfacet

facet normal 0.000000 72.654253 50.202854
	outer loop
		vertex 5.877853 -18.090170 -6.180340
		vertex 3.632713 -11.180340 -16.180340
		vertex -3.632713 -11.180340 -16.180340
	endloop
endfacet

facet normal 42.705098 -58.778525 -50.202854
	outer loop
		vertex 5.877853 -18.090170 -6.180340
		vertex 3.632713 -11.180340 -16.180340
		vertex 9.510565 -6.909830 -16.180340
	endloop
endfacet

facet normal -42.705098 58.778525 50.202854
	outer loop
		vertex 15.388418 -11.180340 -6.180340
		vertex 9.510565 -6.909830 -16.180340
		vertex 3.632713 -11.180340 -16.180340
	endloop
endfacet

facet normal 69.098301 -22.451399 -50.202854
	outer loop
		vertex 15.388418 -11.180340 -6.180340
		vertex 9.510565 -6.909830 -16.180340
		vertex 11.755705 -0.000000 -16.180340
	endloop
endfacet

facet normal -69.098301 22.451399 50.202854
	outer loop
		vertex 19.021130 -0.000000 -6.180340
		vertex 11.755705 -0.000000 -16.180340
		vertex 9.510565 -6.909830 -16.180340
	endloop
endfacet

facet normal 0.000000 0.000000 -0.000000
	outer loop
		vertex 11.755705 0.000000 -16.180340
		vertex 0.000000 0.000000 -20.000000
		vertex 0.000000 0.000000 -20.000000
	endloop
endfacet

facet normal -0.000000 0.000000 0.000000
	outer loop
		vertex 9.510565 6.909830 -16.180340
		vertex 0.000000 0.000000 -20.000000
		vertex 0.000000 0.000000 -20.000000
	endloop
endfacet

facet normal 0.000000 0.000000 -0.000000
	outer loop
		vertex 9.510565 6.909830 -16.180340
		vertex 0.000000 0.000000 -20.000000
		vertex 0.000000 0.000000 -20.000000
	endloop
endfacet

facet normal 0.000000 -0.000000 0.000000
	outer loop
		vertex 3.632713 11.180340 -16.180340
		vertex 0.000000 0.000000 -20.000000
		vertex 0.000000 0.000000 -20.000000
	endloop
endfacet

facet normal 0.000000 0.000000 -0.000000
	outer loop
		vertex 3.632713 11.180340 -16.180340
		vertex 0.000000 0.000000 -20.000000
		vertex -0.000000 0.000000 -20.000000
	endloop
endfacet

facet normal 0.000000 -0.000000 0.000000
	outer loop
		vertex -3.632713 11.180340 -16.180340
		vertex -0.000000 0.000000 -20.000000
		vertex 0.000000 0.000000 -20.000000
	endloop
endfacet

facet normal 0.000000 0.000000 -0.000000
	outer loop
		vertex -3.632713 11.180340 -16.180340
		vertex -0.000000 0.000000 -20.000000
		vertex -0.000000 0.000000 -20.000000
	endloop
endfacet

facet normal 0.000000 -0.000000 0.000000
	outer loop
		vertex -9.510565 6.909830 -16.180340
		vertex -0.000000 0.000000 -20.000000
		vertex -0.000000 0.000000 -20.000000
	endloop
endfacet

facet normal -0.000000 0.000000 -0.000000
	outer loop
		vertex -9.510565 6.909830 -16.180340
		vertex -0.000000 0.000000 -20.000000
		vertex -0.000000 0.000000 -20.000000
	endloop
endfacet

facet normal 0.000000 0.000000 0.000000
	outer loop
		vertex -11.755705 0.000000 -16.180340
		vertex -0.000000 0.000000 -20.000000
		vertex -0.000000 0.000000 -20.000000
	endloop
endfacet

facet normal -0.000000 0.000000 -0.000000
	outer loop
		vertex -11.755705 0.000000 -16.180340
		vertex -0.000000 0.000000 -20.000000
		vertex -0.000000 -0.000000 -20.000000
	endloop
endfacet

facet normal 0.000000 0.000000 0.000000
	outer loop
		vertex -9.510565 -6.909830 -16.180340
		vertex -0.000000 -0.000000 -20.000000
		vertex -0.000000 0.000000 -20.000000
	endloop
endfacet

facet normal -0.000000 -0.000000 -0.000000
	outer loop
		vertex -9.510565 -6.909830 -16.180340
		vertex -0.000000 -0.000000 -20.000000
		vertex -0.000000 -0.000000 -20.000000
	endloop
endfacet

facet normal 0.000000 0.000000 0.000000
	outer loop
		vertex -3.632713 -11.180340 -16.180340
		vertex -0.000000 -0.000000 -20.000000
		vertex -0.000000 -0.000000 -20.000000
	endloop
endfacet

facet normal 0.000000 -0.000000 -0.000000
	outer loop
		vertex -3.632713 -11.180340 -16.180340
		vertex -0.000000 -0.000000 -20.000000
		vertex 0.000000 -0.000000 -20.000000
	endloop
endfacet

facet normal 0.000000 0.000000 0.000000
	outer loop
		vertex 3.632713 -11.180340 -16.180340
		vertex 0.000000 -0.000000 -20.000000
		vertex -0.000000 -0.000000 -20.000000
	endloop
endfacet

facet normal 0.000000 -0.000000 -0.000000
	outer loop
		vertex 3.632713 -11.180340 -16.180340
		vertex 0.000000 -0.000000 -20.000000
		vertex 0.000000 -0.000000 -20.000000
	endloop
endfacet

facet normal 0.000000 0.000000 0.000000
	outer loop
		vertex 9.510565 -6.909830 -16.180340
		vertex 0.000000 -0.000000 -20.000000
		vertex 0.000000 -0.000000 -20.000000
	endloop
endfacet

facet normal 0.000000 0.000000 -0.000000
	outer loop
		vertex 9.510565 -6.909830 -16.180340
		vertex 0.000000 -0.000000 -20.000000
		vertex 0.000000 -0.000000 -20.000000
	endloop
endfacet

facet normal -0.000000 0.000000 0.000000
	outer loop
		vertex 11.755705 -0.000000 -16.180340
		vertex 0.000000 -0.000000 -20.000000
		vertex 0.000000 -0.000000 -20.000000
	endloop
endfacet

facet normal 26.393202 8.575671 81.229924
	outer loop
		vertex 0.000000 0.000000 -20.000000
		vertex -11.755705 -0.000000 -16.180340
		vertex -9.510565 -6.909830 -16.180340
	endloop
endfacet

facet normal -26.393202 -8.575671 -81.229924
	outer loop
		vertex 0.000000 0.000000 -20.000000
		vertex -9.510565 -6.909830 -16.180340
		vertex -11.755705 -0.000000 -16.180340
	endloop
endfacet

facet normal 16.311896 22.451399 81.229924
	outer loop
		vertex 0.000000 0.000000 -20.000000
		vertex -9.510565 -6.909830 -16.180340
		vertex -3.632713 -11.180340 -16.180340
	endloop
endfacet

facet normal -16.311896 -22.451399 -81.229924
	outer loop
		vertex 0.000000 0.000000 -20.000000
		vertex -3.632713 -11.180340 -16.180340
		vertex -9.510565 -6.909830 -16.180340
	endloop
endfacet

facet normal 0.000000 27.751455 81.229924
	outer loop
		vertex 0.000000 0.000000 -20.000000
		vertex -3.632713 -11.180340 -16.180340
		vertex 3.632713 -11.180340 -16.180340
	endloop
endfacet

facet normal 0.000000 -27.751455 -81.229924
	outer loop
		vertex -0.000000 0.000000 -20.000000
		vertex 3.632713 -11.180340 -16.180340
		vertex -3.632713 -11.180340 -16.180340
	endloop
endfacet

facet normal -16.311896 22.451399 81.229924
	outer loop
		vertex -0.000000 0.000000 -20.000000
		vertex 3.632713 -11.180340 -16.180340
		vertex 9.510565 -6.909830 -16.180340
	endloop
endfacet

facet normal 16.311896 -22.451399 -81.229924
	outer loop
		vertex -0.000000 0.000000 -20.000000
		vertex 9.510565 -6.909830 -16.180340
		vertex 3.632713 -11.180340 -16.180340
	endloop
endfacet

facet normal -26.393202 8.575671 81.229924
	outer loop
		vertex -0.000000 0.000000 -20.000000
		vertex 9.510565 -6.909830 -16.180340
		vertex 11.755705 -0.000000 -16.180340
	endloop
endfacet

facet normal 26.393202 -8.575671 -81.229924
	outer loop
		vertex -0.000000 0.000000 -20.000000
		vertex 11.755705 -0.000000 -16.180340
		vertex 9.510565 -6.909830 -16.180340
	endloop
endfacet

facet normal -26.393202 -8.575671 81.229924
	outer loop
		vertex -0.000000 0.000000 -20.000000
		vertex 11.755705 -0.000000 -16.180340
		vertex 9.510565 6.909830 -16.180340
	endloop
endfacet

facet normal 26.393202 8.575671 -81.229924
	outer loop
		vertex -0.000000 -0.000000 -20.000000
		vertex 9.510565 6.909830 -16.180340
		vertex 11.755705 -0.000000 -16.180340
	endloop
endfacet

facet normal -16.311896 -22.451399 81.229924
	outer loop
		vertex -0.000000 -0.000000 -20.000000
		vertex 9.510565 6.909830 -16.180340
		vertex 3.632713 11.180340 -16.180340
	endloop
endfacet

facet normal 16.311896 22.451399 -81.229924
	outer loop
		vertex -0.000000 -0.000000 -20.000000
		vertex 3.632713 11.180340 -16.180340
		vertex 9.510565 6.909830 -16.180340
	endloop
endfacet

facet normal -0.000000 -27.751455 81.229924
	outer loop
		vertex -0.000000 -0.000000 -20.000000
		vertex 3.632713 11.180340 -16.180340
		vertex -3.632713 11.180340 -16.180340
	endloop
endfacet

facet normal 0.000000 27.751455 -81.229924
	outer loop
		vertex 0.000000 -0.000000 -20.000000
		vertex -3.632713 11.180340 -16.180340
		vertex 3.632713 11.180340 -16.180340
	endloop
endfacet

facet normal 16.311896 -22.451399 81.229924
	outer loop
		vertex 0.000000 -0.000000 -20.000000
		vertex -3.632713 11.180340 -16.180340
		vertex -9.510565 6.909830 -16.180340
	endloop
endfacet

facet normal -16.311896 22.451399 -81.229924
	outer loop
		vertex 0.000000 -0.000000 -20.000000
		vertex -9.510565 6.909830 -16.180340
		vertex -3.632713 11.180340 -16.180340
	endloop
endfacet

facet normal 26.393202 -8.575671 81.229924
	outer loop
		vertex 0.000000 -0.000000 -20.000000
		vertex -9.510565 6.909830 -16.180340
		vertex -11.755705 0.000000 -16.180340
	endloop
endfacet

facet normal -26.393202 8.575671 -81.229924
	outer loop
		vertex 0.000000 -0.000000 -20.000000
		vertex -11.755705 0.000000 -16.180340
		vertex -9.510565 6.909830 -16.180340
	endloop
endfacet

facet normal 111.803399 36.327126 81.229924
	outer loop
		vertex -11.755705 -0.000000 -16.180340
		vertex -19.021130 -0.000000 -6.180340
		vertex -15.388418 -11.180340 -6.180340
	endloop
endfacet

facet normal -111.803399 -36.327126 -81.229924
	outer loop
		vertex -9.510565 -6.909830 -16.180340
		vertex -15.388418 -11.180340 -6.180340
		vertex -19.021130 -0.000000 -6.180340
	endloop
endfacet

facet normal 69.098301 95.105652 81.229924
	outer loop
		vertex -9.510565 -6.909830 -16.180340
		vertex -15.388418 -11.180340 -6.180340
		vertex -5.877853 -18.090170 -6.180340
	endloop
endfacet

facet normal -69.098301 -95.105652 -81.229924
	outer loop
		vertex -3.632713 -11.180340 -16.180340
		vertex -5.877853 -18.090170 -6.180340
		vertex -15.388418 -11.180340 -6.180340
	endloop
endfacet

facet normal 0.000000 117.557050 81.229924
	outer loop
		vertex -3.632713 -11.180340 -16.180340
		vertex -5.877853 -18.090170 -6.180340
		vertex 5.877853 -18.090170 -6.180340
	endloop
endfacet

facet normal 0.000000 -117.557050 -81.229924
	outer loop
		vertex 3.632713 -11.180340 -16.180340
		vertex 5.877853 -18.090170 -6.180340
		vertex -5.877853 -18.090170 -6.180340
	endloop
endfacet

facet normal -69.098301 95.105652 81.229924
	outer loop
		vertex 3.632713 -11.180340 -16.180340
		vertex 5.877853 -18.090170 -6.180340
		vertex 15.388418 -11.180340 -6.180340
	endloop
endfacet

facet normal 69.098301 -95.105652 -81.229924
	outer loop
		vertex 9.510565 -6.909830 -16.180340
		vertex 15.388418 -11.180340 -6.180340
		vertex 5.877853 -18.090170 -6.180340
	endloop
endfacet

facet normal -111.803399 36.327126 81.229924
	outer loop
		vertex 9.510565 -6.909830 -16.180340
		vertex 15.388418 -11.180340 -6.180340
		vertex 19.021130 -0.000000 -6.180340
	endloop
endfacet

facet normal 111.803399 -36.327126 -81.229924
	outer loop
		vertex 11.755705 -0.000000 -16.180340
		vertex 19.021130 -0.000000 -6.180340
		vertex 15.388418 -11.180340 -6.180340
	endloop
endfacet

facet normal -111.803399 -36.327126 81.229924
	outer loop
		vertex 11.755705 -0.000000 -16.180340
		vertex 19.021130 -0.000000 -6.180340
		vertex 15.388418 11.180340 -6.180340
	endloop
endfacet

facet normal 111.803399 36.327126 -81.229924
	outer loop
		vertex 9.510565 6.909830 -16.180340
		vertex 15.388418 11.180340 -6.180340
		vertex 19.021130 -0.000000 -6.180340
	endloop
endfacet

facet normal -69.098301 -95.105652 81.229924
	outer loop
		vertex 9.510565 6.909830 -16.180340
		vertex 15.388418 11.180340 -6.180340
		vertex 5.877853 18.090170 -6.180340
	endloop
endfacet

facet normal 69.098301 95.105652 -81.229924
	outer loop
		vertex 3.632713 11.180340 -16.180340
		vertex 5.877853 18.090170 -6.180340
		vertex 15.388418 11.180340 -6.180340
	endloop
endfacet

facet normal 0.000000 -117.557050 81.229924
	outer loop
		vertex 3.632713 11.180340 -16.180340
		vertex 5.877853 18.090170 -6.180340
		vertex -5.877853 18.090170 -6.180340
	endloop
endfacet

facet normal 0.000000 117.557050 -81.229924
	outer loop
		vertex -3.632713 11.180340 -16.180340
		vertex -5.877853 18.090170 -6.180340
		vertex 5.877853 18.090170 -6.180340
	endloop
endfacet

facet normal 69.098301 -95.105652 81.229924
	outer loop
		vertex -3.632713 11.180340 -16.180340
		vertex -5.877853 18.090170 -6.180340
		vertex -15.388418 11.180340 -6.180340
	endloop
endfacet

facet normal -69.098301 95.105652 -81.229924
	outer loop
		vertex -9.510565 6.909830 -16.180340
		vertex -15.388418 11.180340 -6.180340
		vertex -5.877853 18.090170 -6.180340
	endloop
endfacet

facet normal 111.803399 -36.327126 81.229924
	outer loop
		vertex -9.510565 6.909830 -16.180340
		vertex -15.388418 11.180340 -6.180340
		vertex -19.021130 0.000000 -6.180340
	endloop
endfacet

facet normal -111.803399 36.327126 -81.229924
	outer loop
		vertex -11.755705 0.000000 -16.180340
		vertex -19.021130 0.000000 -6.180340
		vertex -15.388418 11.180340 -6.180340
	endloop
endfacet

facet normal 138.196601 44.902798 0.000000
	outer loop
		vertex -19.021130 -0.000000 -6.180340
		vertex -19.021130 -0.000000 6.180340
		vertex -15.388418 -11.180340 6.180340
	endloop
endfacet

facet normal -138.196601 -44.902798 -0.000000
	outer loop
		vertex -15.388418 -11.180340 -6.180340
		vertex -15.388418 -11.180340 6.180340
		vertex -19.021130 -0.000000 6.180340
	endloop
endfacet

facet normal 85.410197 117.557050 0.000000
	outer loop
		vertex -15.388418 -11.180340 -6.180340
		vertex -15.388418 -11.180340 6.180340
		vertex -5.877853 -18.090170 6.180340
	endloop
endfacet

facet normal -85.410197 -117.557050 -0.000000
	outer loop
		vertex -5.877853 -18.090170 -6.180340
		vertex -5.877853 -18.090170 6.180340
		vertex -15.388418 -11.180340 6.180340
	endloop
endfacet

facet normal 0.000000 145.308506 0.000000
	outer loop
		vertex -5.877853 -18.090170 -6.180340
		vertex -5.877853 -18.090170 6.180340
		vertex 5.877853 -18.090170 6.180340
	endloop
endfacet

facet normal 0.000000 -145.308506 -0.000000
	outer loop
		vertex 5.877853 -18.090170 -6.180340
		vertex 5.877853 -18.090170 6.180340
		vertex -5.877853 -18.090170 6.180340
	endloop
endfacet

facet normal -85.410197 117.557050 0.000000
	outer loop
		vertex 5.877853 -18.090170 -6.180340
		vertex 5.877853 -18.090170 6.180340
		vertex 15.388418 -11.180340 6.180340
	endloop
endfacet

facet normal 85.410197 -117.557050 -0.000000
	outer loop
		vertex 15.388418 -11.180340 -6.180340
		vertex 15.388418 -11.180340 6.180340
		vertex 5.877853 -18.090170 6.180340
	endloop
endfacet

facet normal -138.196601 44.902798 0.000000
	outer loop
		vertex 15.388418 -11.180340 -6.180340
		vertex 15.388418 -11.180340 6.180340
		vertex 19.021130 -0.000000 6.180340
	endloop
endfacet

facet normal 138.196601 -44.902798 -0.000000
	outer loop
		vertex 19.021130 -0.000000 -6.180340
		vertex 19.021130 -0.000000 6.180340
		vertex 15.388418 -11.180340 6.180340
	endloop
endfacet

facet normal -138.196601 -44.902798 0.000000
	outer loop
		vertex 19.021130 -0.000000 -6.180340
		vertex 19.021130 -0.000000 6.180340
		vertex 15.388418 11.180340 6.180340
	endloop
endfacet

facet normal 138.196601 44.902798 -0.000000
	outer loop
		vertex 15.388418 11.180340 -6.180340
		vertex 15.388418 11.180340 6.180340
		vertex 19.021130 -0.000000 6.180340
	endloop
endfacet

facet normal -85.410197 -117.557050 0.000000
	outer loop
		vertex 15.388418 11.180340 -6.180340
		vertex 15.388418 11.180340 6.180340
		vertex 5.877853 18.090170 6.180340
	endloop
endfacet

facet normal 85.410197 117.557050 -0.000000
	outer loop
		vertex 5.877853 18.090170 -6.180340
		vertex 5.877853 18.090170 6.180340
		vertex 15.388418 11.180340 6.180340
	endloop
endfacet

facet normal 0.000000 -145.308506 0.000000
	outer loop
		vertex 5.877853 18.090170 -6.180340
		vertex 5.877853 18.090170 6.180340
		vertex -5.877853 18.090170 6.180340
	endloop
endfacet

facet normal 0.000000 145.308506 -0.000000
	outer loop
		vertex -5.877853 18.090170 -6.180340
		vertex -5.877853 18.090170 6.180340
		vertex 5.877853 18.090170 6.180340
	endloop
endfacet

facet normal 85.410197 -117.557050 0.000000
	outer loop
		vertex -5.877853 18.090170 -6.180340
		vertex -5.877853 18.090170 6.180340
		vertex -15.388418 11.180340 6.180340
	endloop
endfacet

facet normal -85.410197 117.557050 -0.000000
	outer loop
		vertex -15.388418 11.180340 -6.180340
		vertex -15.388418 11.180340 6.180340
		vertex -5.877853 18.090170 6.180340
	endloop
endfacet

facet normal 138.196601 -44.902798 0.000000
	outer loop
		vertex -15.388418 11.180340 -6.180340
		vertex -15.388418 11.180340 6.180340
		vertex -19.021130 0.000000 6.180340
	endloop
endfacet

facet normal -138.196601 44.902798 -0.000000
	outer loop
		vertex -19.021130 0.000000 -6.180340
		vertex -19.021130 0.000000 6.180340
		vertex -15.388418 11.180340 6.180340
	endloop
endfacet

facet normal 69.098301 22.451399 -50.202854
	outer loop
		vertex -19.021130 -0.000000 6.180340
		vertex -11.755705 -0.000000 16.180340
		vertex -9.510565 -6.909830 16.180340
	endloop
endfacet

facet normal -69.098301 -22.451399 50.202854
	outer loop
		vertex -15.388418 -11.180340 6.180340
		vertex -9.510565 -6.909830 16.180340
		vertex -11.755705 -0.000000 16.180340
	endloop
endfacet

facet normal 42.705098 58.778525 -50.202854
	outer loop
		vertex -15.388418 -11.180340 6.180340
		vertex -9.510565 -6.909830 16.180340
		vertex -3.632713 -11.180340 16.180340
	endloop
endfacet

facet normal -42.705098 -58.778525 50.202854
	outer loop
		vertex -5.877853 -18.090170 6.180340
		vertex -3.632713 -11.180340 16.180340
		vertex -9.510565 -6.909830 16.180340
	endloop
endfacet

facet normal 0.000000 72.654253 -50.202854
	outer loop
		vertex -5.877853 -18.090170 6.180340
		vertex -3.632713 -11.180340 16.180340
		vertex 3.632713 -11.180340 16.180340
	endloop
endfacet

facet normal 0.000000 -72.654253 50.202854
	outer loop
		vertex 5.877853 -18.090170 6.180340
		vertex 3.632713 -11.180340 16.180340
		vertex -3.632713 -11.180340 16.180340
	endloop
endfacet

facet normal -42.705098 58.778525 -50.202854
	outer loop
		vertex 5.877853 -18.090170 6.180340
		vertex 3.632713 -11.180340 16.180340
		vertex 9.510565 -6.909830 16.180340
	endloop
endfacet

facet normal 42.705098 -58.778525 50.202854
	outer loop
		vertex 15.388418 -11.180340 6.180340
		vertex 9.510565 -6.909830 16.180340
		vertex 3.632713 -11.180340 16.180340
	endloop
endfacet

facet normal -69.098301 22.451399 -50.202854
	outer loop
		vertex 15.388418 -11.180340 6.180340
		vertex 9.510565 -6.909830 16.180340
		vertex 11.755705 -0.000000 16.180340
	endloop
endfacet

facet normal 69.098301 -22.451399 50.202854
	outer loop
		vertex 19.021130 -0.000000 6.180340
		vertex 11.755705 -0.000000 16.180340
		vertex 9.510565 -6.909830 16.180340
	endloop
endfacet

facet normal -69.098301 -22.451399 -50.202854
	outer loop
		vertex 19.021130 -0.000000 6.180340
		vertex 11.755705 -0.000000 16.180340
		vertex 9.510565 6.909830 16.180340
	endloop
endfacet

facet normal 69.098301 22.451399 50.202854
	outer loop
		vertex 15.388418 11.180340 6.180340
		vertex 9.510565 6.909830 16.180340
		vertex 11.755705 -0.000000 16.180340
	endloop
endfacet

facet normal -42.705098 -58.778525 -50.202854
	outer loop
		vertex 15.388418 11.180340 6.180340
		vertex 9.510565 6.909830 16.180340
		vertex 3.632713 11.180340 16.180340
	endloop
endfacet

facet normal 42.705098 58.778525 50.202854
	outer loop
		vertex 5.877853 18.090170 6.180340
		vertex 3.632713 11.180340 16.180340
		vertex 9.510565 6.909830 16.180340
	endloop
endfacet

facet normal -0.000000 -72.654253 -50.202854
	outer loop
		vertex 5.877853 18.090170 6.180340
		vertex 3.632713 11.180340 16.180340
		vertex -3.632713 11.180340 16.180340
	endloop
endfacet

facet normal 0.000000 72.654253 50.202854
	outer loop
		vertex -5.877853 18.090170 6.180340
		vertex -3.632713 11.180340 16.180340
		vertex 3.632713 11.180340 16.180340
	endloop
endfacet

facet normal 42.705098 -58.778525 -50.202854
	outer loop
		vertex -5.877853 18.090170 6.180340
		vertex -3.632713 11.180340 16.180340
		vertex -9.510565 6.909830 16.180340
	endloop
endfacet

facet normal -42.705098 58.778525 50.202854
	outer loop
		vertex -15.388418 11.180340 6.180340
		vertex -9.510565 6.909830 16.180340
		vertex -3.632713 11.180340 16.180340
	endloop
endfacet

facet normal 69.098301 -22.451399 -50.202854
	outer loop
		vertex -15.388418 11.180340 6.180340
		vertex -9.510565 6.909830 16.180340
		vertex -11.755705 0.000000 16.180340
	endloop
endfacet

facet normal -69.098301 22.451399 50.202854
	outer loop
		vertex -19.021130 0.000000 6.180340
		vertex -11.755705 0.000000 16.180340
		vertex -9.510565 6.909830 16.180340
	endloop
endfacet

facet normal 0.000000 0.000000 -0.000000
	outer loop
		vertex -11.755705 -0.000000 16.180340
		vertex -0.000000 -0.000000 20.000000
		vertex -0.000000 -0.000000 20.000000
	endloop
endfacet

facet normal -0.000000 -0.000000 0.000000
	outer loop
		vertex -9.510565 -6.909830 16.180340
		vertex -0.000000 -0.000000 20.000000
		vertex -0.000000 -0.000000 20.000000
	endloop
endfacet

facet normal 0.000000 0.000000 -0.000000
	outer loop
		vertex -9.510565 -6.909830 16.180340
		vertex -0.000000 -0.000000 20.000000
		vertex -0.000000 -0.000000 20.000000
	endloop
endfacet

facet normal -0.000000 -0.000000 0.000000
	outer loop
		vertex -3.632713 -11.180340 16.180340
		vertex -0.000000 -0.000000 20.000000
		vertex -0.000000 -0.000000 20.000000
	endloop
endfacet

facet normal 0.000000 0.000000 -0.000000
	outer loop
		vertex -3.632713 -11.180340 16.180340
		vertex -0.000000 -0.000000 20.000000
		vertex 0.000000 -0.000000 20.000000
	endloop
endfacet

facet normal 0.000000 -0.000000 0.000000
	outer loop
		vertex 3.632713 -11.180340 16.180340
		vertex 0.000000 -0.000000 20.000000
		vertex -0.000000 -0.000000 20.000000
	endloop
endfacet

facet normal -0.000000 0.000000 -0.000000
	outer loop
		vertex 3.632713 -11.180340 16.180340
		vertex 0.000000 -0.000000 20.000000
		vertex 0.000000 -0.000000 20.000000
	endloop
endfacet

facet normal 0.000000 -0.000000 0.000000
	outer loop
		vertex 9.510565 -6.909830 16.180340
		vertex 0.000000 -0.000000 20.000000
		vertex 0.000000 -0.000000 20.000000
	endloop
endfacet

facet normal -0.000000 0.000000 -0.000000
	outer loop
		vertex 9.510565 -6.909830 16.180340
		vertex 0.000000 -0.000000 20.000000
		vertex 0.000000 -0.000000 20.000000
	endloop
endfacet

facet normal 0.000000 -0.000000 0.000000
	outer loop
		vertex 11.755705 -0.000000 16.180340
		vertex 0.000000 -0.000000 20.000000
		vertex 0.000000 -0.000000 20.000000
	endloop
endfacet

facet normal -0.000000 -0.000000 -0.000000
	outer loop
		vertex 11.755705 -0.000000 16.180340
		vertex 0.000000 -0.000000 20.000000
		vertex 0.000000 0.000000 20.000000
	endloop
endfacet

facet normal 0.000000 0.000000 0.000000
	outer loop
		vertex 9.510565 6.909830 16.180340
		vertex 0.000000 0.000000 20.000000
		vertex 0.000000 -0.000000 20.000000
	endloop
endfacet

facet normal -0.000000 -0.000000 -0.000000
	outer loop
		vertex 9.510565 6.909830 16.180340
		vertex 0.000000 0.000000 20.000000
		vertex 0.000000 0.000000 20.000000
	endloop
endfacet

facet normal 0.000000 0.000000 0.000000
	outer loop
		vertex 3.632713 11.180340 16.180340
		vertex 0.000000 0.000000 20.000000
		vertex 0.000000 0.000000 20.000000
	endloop
endfacet

facet normal 0.000000 -0.000000 -0.000000
	outer loop
		vertex 3.632713 11.180340 16.180340
		vertex 0.000000 0.000000 20.000000
		vertex -0.000000 0.000000 20.000000
	endloop
endfacet

facet normal 0.000000 0.000000 0.000000
	outer loop
		vertex -3.632713 11.180340 16.180340
		vertex -0.000000 0.000000 20.000000
		vertex 0.000000 0.000000 20.000000
	endloop
endfacet

facet normal 0.000000 -0.000000 -0.000000
	outer loop
		vertex -3.632713 11.180340 16.180340
		vertex -0.000000 0.000000 20.000000
		vertex -0.000000 0.000000 20.000000
	endloop
endfacet

facet normal -0.000000 0.000000 0.000000
	outer loop
		vertex -9.510565 6.909830 16.180340
		vertex -0.000000 0.000000 20.000000
		vertex -0.000000 0.000000 20.000000
	endloop
endfacet

facet normal 0.000000 -0.000000 -0.000000
	outer loop
		vertex -9.510565 6.909830 16.180340
		vertex -0.000000 0.000000 20.000000
		vertex -0.000000 0.000000 20.000000
	endloop
endfacet

facet normal -0.000000 0.000000 0.000000
	outer loop
		vertex -11.755705 0.000000 16.180340
		vertex -0.000000 0.000000 20.000000
		vertex -0.000000 0.000000 20.000000
	endloop
endfacet

endsolid Sphere
